<?xml version="1.0" encoding="utf-8"?>
<!-- Generator: Adobe Illustrator 22.1.0, SVG Export Plug-In . SVG Version: 6.00 Build 0)  -->
<svg version="1.1" id="Layer_1" xmlns="http://www.w3.org/2000/svg" xmlns:xlink="http://www.w3.org/1999/xlink" x="0px" y="0px"
	 viewBox="0 0 800 800" style="enable-background:new 0 0 800 800;" xml:space="preserve">
<style type="text/css">
	.st0{fill:#424242;}
	.st1{fill:#00B497;}
</style>
<g>
	<path class="st0" d="M405.5,655.4L405.5,655.4c0.2,0,0.5,0,0.8,0l0,0c1-0.1,2.1-0.3,3.1-0.5c9.1-3.6,37.1-24.2,45.9-47.7
		c3.9-10.1,4.1-18.7,0.7-25.4c-2.8-5.3-7.8-9.4-15-12.4c-2.4-1-5.2-0.6-7.2,1c-10.2,8.1-19.7,13.4-24.5,14.1
		c-1.1,0.1-2.2,0.2-3.3,0.2c-1.1,0-2.2-0.1-3.3-0.2c-4.9-0.7-14.3-6-24.5-14.1c-2.1-1.6-4.8-2.1-7.2-1c-7.2,2.9-12.3,7-14.9,12.3
		c-3.4,6.7-3.2,15.3,0.7,25.4c8.9,23.5,36.8,44.2,45.9,47.7C403.5,655.2,404.5,655.3,405.5,655.4z"/>
	<path class="st0" d="M405.9,501c-1.3,0-2.5-0.1-3.8-0.2c-5.3-0.7-14.9-5.4-25.5-12.8c-8.9-6.3-21.7-3.3-26.4,6.5
		c0,0.1-0.1,0.1-0.1,0.2c-3.3,7.3-3,16.5,1.1,27.3c10.6,27.8,44.5,52,52.5,53c1.3,0.2,2.6,0.2,4,0c8-1.1,42-25.4,52.5-53
		c4.1-10.8,4.5-20,1.1-27.3c0-0.1-0.1-0.1-0.1-0.2c-4.7-10-17.4-13-26.4-6.7c-10.6,7.5-20.2,12.2-25.5,12.8
		C408.4,500.9,407.2,501,405.9,501z"/>
	<path class="st1" d="M278.7,444.6c26.8,3.2,48.9,20.9,61.1,33c3.1,3.1,7.9,3.2,11.2,0.5l0.1-0.1c3.7-3,4.1-8.5,0.9-12
		c-8.1-9.1-15.1-19.4-19.4-30.5c-4.1-10.9-5.5-20.8-4.1-29.6c0.2-1.7,0-3.4-0.8-4.9c-4.2-8.6-15.6-27.3-35.9-35.9
		c-15.8-6.7-34.1-6.2-54.5,1.5c-2.8,1-4.8,3.6-5.3,6.4c-2.5,14.9-3.9,31.3-3.9,49.7c0,7.1,0.1,14.2,0.5,21c0.2,6,6.5,9.8,12,7.2
		C252.9,445.2,265.6,443.1,278.7,444.6z"/>
	<path class="st0" d="M603.3,342.1c3.8-0.7,7.5-0.3,11.2,0.8c-9.3-35-25.1-62.2-45.3-85c-4.6-0.6-8.6,0.2-11.9,2.5
		c-6.8,4.6-9.8,13.8-10.8,18c17.9,20.4,31.2,44.1,39,74.3C589.8,348.3,595.7,343.5,603.3,342.1z"/>
	<path class="st0" d="M591.3,468.3c-3,29.3-8.9,55.3-17.7,77.9c7.1-2.6,16.1-4.6,24-1.7c2.9,1,5.4,2.8,7.6,4.8
		c8.8-25.1,14.9-54.5,17.6-88.4c-2.4-2.4-5.2-3.8-8.1-4.1C605.7,456.1,595.6,464.1,591.3,468.3z"/>
	<path class="st0" d="M238.2,546c-8.8-22.7-14.7-48.9-17.7-78.2c-4.6-4.4-14.3-11.7-22.7-10.9c-3.2,0.3-6.1,1.8-8.6,4.6
		c2.6,34,8.7,63.2,17.6,88.3c2.3-2.3,4.9-4.1,7.9-5.3C222.6,541.7,231.3,543.5,238.2,546z"/>
	<path class="st0" d="M219.5,454.3c-0.7-10.2-1-20.8-1-31.7c0-21.6,1.8-40.7,5.2-57.8c-2.4-3.8-8.3-11.6-16.2-13
		c-4.1-0.7-8.6,0.6-13.1,3.8c-4.1,19.7-6.4,41.9-6.4,66.9c0,9.3,0.2,18.4,0.7,27.1c2.6-1.4,5.4-2.3,8.4-2.5
		C205.3,446.3,213.4,450.2,219.5,454.3z"/>
	<path class="st0" d="M471.3,399.8c-0.9-2-2-3.7-3.2-5.4c-6.2-8-17.9-9.2-25.8-2.9c-13.2,10.6-26,17.2-32.5,18.1
		c-1.3,0.1-2.5,0.2-3.8,0.2c-1.3,0-2.5-0.1-3.8-0.2c-6.5-0.9-19.4-7.7-32.4-18.1c-7.9-6.4-19.6-5.3-25.9,2.8
		c-1.4,1.7-2.4,3.6-3.3,5.5c-3.9,8.6-3.4,19.5,1.4,32.1c12,31.8,51.3,57.6,61.6,59c1.6,0.2,3.2,0.2,4.8,0
		c10.3-1.4,49.6-27.2,61.6-59C474.7,419.3,475.2,408.4,471.3,399.8z"/>
	<path class="st1" d="M465.4,287.9c0.5,0.3,0.9,0.6,1.4,0.9c3.3,2.4,7.9,2.1,10.8-0.8c6.2-6.3,15.6-13.5,28-16.6
		c6.8-1.7,8.6-10.4,3.1-14.7c-6.9-5.5-14.3-10.9-22-16.2l-0.1-0.1c-5.3-3.7-12.6-0.1-13.1,6.3c-0.3,5.3-1.6,10.8-3.9,16.6
		c-1.7,4.5-3.9,8.8-6.5,13.1C460.7,280.3,461.8,285.5,465.4,287.9z"/>
	<path class="st0" d="M255,260.6c-3.6-2.4-7.6-3.2-12.5-2.5c-20.2,22.8-35.9,50-45.3,85.1c3.9-1.3,7.8-1.6,11.7-1
		c7.3,1.3,13.2,5.9,17.4,10.3c7.8-30.3,21.2-53.9,39.3-74.3C264.6,273.8,261.6,264.9,255,260.6z"/>
	<path class="st0" d="M406,212.5L406,212.5h-0.2c-1.1,0-2.3,0-3.4,0c-24.8,0-42.4,5.7-49.9,16.4c-5.5,7.8-5.9,18.2-1,31
		c10.6,27.8,44.5,52,52.5,53c1.3,0.2,2.6,0.2,4,0c8-1.1,42-25.4,52.5-53c4.8-12.7,4.5-23.2-1-31C451.5,217.8,432.6,212.1,406,212.5z
		"/>
	<path class="st1" d="M325.1,240.5c-7.7,5.3-15,10.6-21.9,16.1c-5.5,4.4-3.6,13.1,3.2,14.8c12.3,3,21.7,10.1,28,16.4
		c2.9,2.9,7.5,3.4,10.8,1c0.3-0.2,0.8-0.6,1.1-0.8c3.8-2.5,4.7-7.6,2.4-11.4c-2.6-4.2-4.9-8.6-6.5-13.1c-2.2-5.9-3.6-11.5-3.9-16.6
		c-0.5-6.4-7.7-10-13.1-6.3C325.2,240.5,325.1,240.5,325.1,240.5z"/>
	<path class="st1" d="M298.9,613.3c9.9,7.2,19.8,13.3,29.6,18.5l8.9,4.5c6.7,3.2,13.1,6,19.3,8.3c5.5,2.1,10.1-4.5,6.2-8.9
		c-1.4-1.6-2.6-3.2-4-4.8l-5-7.6c-2.2-3.3-4.2-6.9-5.7-10.6c-0.2-0.6-0.5-1.3-0.7-1.8c-2.3-6.1-3.6-11.8-3.7-17.2
		c-0.2-9.8-4-19-10.8-25.9c-9.1-9.3-22.1-19.5-37.6-21.9c-10.4-1.7-20.9,0.3-31.1,6c-5.9,3.2-7.9,10.7-4.7,16.4
		C270.1,586.7,283.3,602,298.9,613.3z"/>
	<path class="st0" d="M605,351.9c-8.4,1.4-14.5,10.1-16.6,13.5c3.3,17,5,35.9,5,57.2c0,11-0.3,21.7-1,32c6.1-4.2,14.5-8.4,22.9-7.6
		c2.9,0.2,5.5,1,7.9,2.3c0.5-8.6,0.7-17.6,0.7-26.7c0-25.2-2.3-47.4-6.5-67.3C613.2,352.4,609.1,351.2,605,351.9z"/>
	<path class="st1" d="M580.7,474.3c0.5-3.8-1.3-7.5-4.4-9.5c-13.2-8.6-27.1-12-41.4-10.3c-27.1,3.2-49.6,24-59.5,34.6
		c-2.2,2.4-3.1,5.7-2.4,8.9c1.7,8.1,0.6,17.3-3.2,27.5c-3.6,9.3-9.4,18.2-16.3,26.4c-3.7,4.4-3.1,10.9,1.5,14.3l0.1,0.1
		c4.1,3.1,10,2.6,13.5-1.3c10.1-11.4,26.4-25.6,46.9-28.9c12.5-2.1,24.9,0.2,36.9,6.8c5.3,2.9,11.9,0.2,14-5.5
		C573.1,518.6,577.9,497.6,580.7,474.3z"/>
	<path class="st0" d="M410.8,179.2v23.5c20.2,0.1,36,4,46.8,11.1l0,0c11,4.1,22.7,10.4,34.6,18.6c17.4,11.9,33,24.2,46.5,37.9
		c2.2-5.9,6.1-13.2,13-17.8c2.8-1.8,5.6-3.1,8.7-3.8c-15.1-15.4-32.5-28.8-50.9-41.4C457.7,171.9,423.1,175.9,410.8,179.2z"/>
	<path class="st0" d="M275.1,646c6.7,4.8,13.4,9.3,20.2,13.4c2.5-12,11.9-19.2,21.3-22.9c-7.8-4.5-15.7-9.5-23.5-15.3
		c-20.4-14.9-36.8-35.7-49.1-61.7c-5.7-3.3-17.7-8.8-25.8-5.9c-3.1,1.1-5.4,3.4-7.1,7C226.7,599.2,249.1,627,275.1,646z"/>
	<path class="st0" d="M594.1,553.8c-8.4-3.1-21,2.9-26.4,6.2c-12.2,25.8-28.6,46.5-48.9,61.3c-7.8,5.6-15.6,10.7-23.3,15.1
		c9.4,3.7,18.9,10.8,21.6,22.8c6.7-4,13.3-8.4,19.8-13.2c26.2-19,48.5-46.9,64.1-85.7C599.3,557,597,554.9,594.1,553.8z"/>
	<path class="st0" d="M408.3,400c10.3-1.4,49.6-27.2,61.6-59c4.8-12.7,5.3-23.6,1.3-32.4c-0.2-0.6-0.6-1-0.8-1.6
		c-5.9-10.7-20.2-12.8-29.1-4.7c-12.7,11.7-25.8,19.5-31.9,20.3c-1.1,0.1-2.2,0.2-3.3,0.2s-2.2-0.1-3.3-0.2
		c-6.1-0.8-19.2-8.7-31.9-20.3c-8.9-8.3-23.4-6-29.3,4.7c-0.3,0.6-0.6,1.1-0.8,1.7c-3.9,8.6-3.4,19.5,1.4,32.1
		c3.9,10.4,11.5,21.5,21.7,31.8c16.5,16.7,34.5,26.5,39.9,27.2C405.1,400.2,406.7,400.2,408.3,400z"/>
	<path class="st0" d="M260.5,252.4c6.8,4.6,10.6,11.7,12.8,17.4c13.3-13.5,28.8-25.7,46.1-37.5c11.9-8.1,23.6-14.5,34.8-18.6
		c10.8-7.1,26.5-10.9,46.7-11.1v-23.5c-12.3-3.2-46.9-7.3-98.7,28c-18.6,12.6-35.8,26-50.9,41.4
		C254.7,249.2,257.8,250.5,260.5,252.4z"/>
	<path class="st1" d="M552.5,567.9c3.3-5.9,1.1-13.3-4.7-16.4c-10.2-5.5-20.4-7.5-30.7-5.7c-15.8,2.5-29.1,13.2-38.3,22.6
		c-6.5,6.9-10.2,15.9-10.6,25.5c-0.2,5.3-1.4,10.9-3.7,17c-0.2,0.6-0.5,1.3-0.7,1.8c-1.6,3.7-3.6,7.2-5.9,10.7l-5.2,7.7
		c-1.3,1.6-2.5,3.1-3.8,4.7c-3.8,4.5,0.8,11,6.2,8.9c6.2-2.4,12.8-5.2,19.6-8.5l8.9-4.5c9.5-5,19.4-11.1,29.3-18.2
		C528.8,601.9,541.9,586.6,552.5,567.9z"/>
	<path class="st1" d="M516.5,356c15.4-6.5,32.6-7.2,51.2-2.2c3.8,1,7.1-2.5,6.1-6.3c-7.6-24.9-19.4-45.1-34.9-62.6
		c-0.6-0.6-1.1-1-2-1.4c-29.9-11.8-49,6.2-56.3,15.6c-1.1,1.5-1.4,3.6-0.6,5.3l0,0c5.2,11.1,4.8,24.7-0.9,39.9
		c-3.6,9.5-9.3,18.5-15.9,26.5c-2,2.3-1.3,5.7,1.3,7.3c3.7,2.4,6.9,5,9.6,8c2.2,2.4,6.1,2.1,7.8-0.7
		C488.7,375.5,499.8,363,516.5,356z"/>
	<path class="st0" d="M482.8,643.2c-31.3,15.6-59.2,21.7-71.9,22.3v30.5c21.2-0.5,58.6-10.1,96.9-31.4
		C506.7,648,487.9,644,482.8,643.2z"/>
	<path class="st1" d="M583.6,422.7c0-18.4-1.4-34.8-3.9-49.7c-0.6-3-2.6-5.5-5.5-6.7c-20.1-7.5-38.2-7.9-53.8-1.3
		c-21,8.8-32.4,28.3-36.4,36.6c-0.7,1.5-1,3.2-0.8,4.9c1.3,8.6-0.2,18.4-4.2,28.9c-4.1,11-11.1,21.3-19.3,30.4
		c-3.2,3.7-2.9,9.3,0.9,12.3l0.1,0.1c3.4,2.8,8.4,2.6,11.6-0.5c12.3-12.2,34.3-29.9,61.1-33.2c12.8-1.5,25.4,0.5,37.3,6
		c5.6,2.5,11.9-1.3,12.3-7.3C583.5,436.4,583.6,429.7,583.6,422.7z"/>
	<path class="st1" d="M238.7,345.7c-1.5,4.6,2.6,8.9,7.3,7.7c18.1-4.7,34.9-3.8,49.9,2.5c15.9,6.8,26.8,18.5,33.7,28.3
		c2.2,3.2,6.8,3.6,9.4,0.7c2.2-2.3,4.7-4.4,7.6-6.3c3-2,3.7-6.1,1.4-8.8c-6.8-8.4-11.9-17-15.1-25.5c-5.7-15.3-6.2-28.6-1-39.7l0,0
		c1-2.2,0.7-4.7-0.8-6.5c-8-9.6-27.1-26.2-56.1-14.3c-0.9,0.3-1.6,0.9-2.3,1.6C257.8,302.4,246.3,321.8,238.7,345.7z"/>
	<path class="st0" d="M304.6,664.8c38.1,21.2,75.4,30.6,96.5,31.2v-30.5c-12.7-0.6-40.6-6.5-71.8-22.1
		C323.5,644.2,305.5,648.4,304.6,664.8z"/>
	<path class="st1" d="M296.9,536c20.5,3.3,36.8,17.6,46.9,28.8c3.4,3.8,9.1,4.4,13.2,1.3l0.1-0.1c4.5-3.3,5.2-9.9,1.5-14.1
		c-6.9-8.1-12.8-17.1-16.4-26.5c-3.9-10.3-4.9-19.6-3.2-27.9c0.7-3.2-0.1-6.5-2.4-8.9c-10.1-10.8-32.5-31.1-59.2-34.2
		c-14.6-1.7-28.7,1.8-42,10.8c-3.1,2.1-4.7,5.6-4.2,9.3c2.9,23.4,7.7,44.5,14.5,63.3c2.1,5.7,8.7,8.1,14,5.2
		C271.8,536.4,284.3,533.9,296.9,536z"/>
	<path class="st0" d="M409.1,705.9c-1.1,0-2.2,0-3.2-0.1c-1,0-2.1,0.1-3.2,0.1c-2.9,0-6-0.1-9.2-0.5c2.8,9.9,8.7,29.3,13.7,27.3
		c4.8-2,9.2-18.5,11.2-27.3C415.2,705.7,412.1,705.9,409.1,705.9L409.1,705.9z"/>
	<path class="st0" d="M132.2,267.7c0-11.4-5.7-21.3-14.3-27.4c-18.4,19.4-31.1,41-35.4,53.3c-0.3,0.9-0.7,1.8-0.9,2.9
		c5,3,10.9,4.8,17.2,4.8C117.1,301.2,132.2,286.2,132.2,267.7z"/>
	<path class="st0" d="M100.6,338.2c0-14.7-9.4-27.1-22.6-31.7c-5.4,16.5-12.8,40.4-18.9,64.1c2.5,0.6,5.3,1,8,1
		C85.6,371.7,100.6,356.7,100.6,338.2z"/>
	<path class="st0" d="M200.7,269c6.3-3.3,13.8-2.5,20.6-0.1c11.5-15.9,25.6-30.9,43.2-45.7c-10.7-9.6-34.2-25.4-72.7-23.3
		c-26.5,1.4-50.8,17.2-69.7,36c9.8,7.2,16.1,18.7,16.1,31.7c0,21.7-17.7,39.5-39.5,39.5c-3,0-6-0.3-8.7-1
		c10,7.1,16.6,18.8,16.6,32.1c0,21.7-17.7,39.5-39.5,39.5c-0.1,0-0.2,0-0.3,0c12.8,5.6,21.9,18.5,21.9,33.3
		c0,20.1-16.3,36.4-36.4,36.4c-1.3,0-2.5-0.1-3.8-0.2c2.9,25.8,16.9,31.8,33,31.8c18.7,0,27.6-31.5,38.4-34.5
		c10.8-3,31.5-9.9,43.4-43.4C175.1,367.5,183.9,277.8,200.7,269z"/>
	<path class="st0" d="M82.7,411c0-15.3-11.4-28-26-30.1c-4.8,19.8-8.4,38.9-8.7,52.7c-0.1,2.6,0,5.2,0,7.6c1.4,0.2,2.8,0.3,4.2,0.3
		C69.1,441.4,82.7,427.7,82.7,411z"/>
	<path class="st0" d="M711.3,338.2c0,18.5,15,33.5,33.5,33.5c2.8,0,5.4-0.3,8-1c-6.1-23.7-13.5-47.6-18.9-64.1
		C720.7,311.1,711.3,323.6,711.3,338.2z"/>
	<path class="st0" d="M679.7,267.7c0,18.5,15,33.5,33.5,33.5c6.3,0,12.2-1.8,17.2-4.8c-0.3-1-0.7-2-0.9-2.9
		c-4.2-12.4-17.1-34-35.4-53.3C685.5,246.4,679.7,256.3,679.7,267.7z"/>
	<path class="st0" d="M542.6,653.9c-10,7.3-20.4,13.9-30.9,19.6c0.1,9.9-1.1,21.2-6.9,28c-11.8,13.8-32.5,57.1-11.8,64
		c6.1,2.1,11.1,1.8,15.4,0.3c0,0,4.4-2,5.5-2.8c7.1-4.7,12.3-12.4,18.5-16.3c3.2-2.1,10.1-4.5,18-7.9l7.7-3.4
		c13.2-6.3,27.4-15.4,33.8-29.5l2.2-6.1c0.7-2.6,1.1-5.3,1.3-8.3c1.4-25.4-7.2-58.7-13-77.8C569.6,631.5,555.7,644.4,542.6,653.9z"
		/>
	<path class="st0" d="M723.3,411c0-14.9,9.1-27.8,21.9-33.3c-0.1,0-0.2,0-0.3,0c-21.7,0-39.5-17.7-39.5-39.5
		c0-13.2,6.5-24.9,16.6-32.1c-2.8,0.7-5.7,1-8.7,1c-21.7,0-39.5-17.7-39.5-39.5c0-13,6.3-24.5,16.1-31.7c-19-18.8-43.2-34.6-69.7-36
		c-38.7-2.1-62.2,13.7-72.7,23.3c17.7,14.8,31.8,29.6,43.2,45.7c6.9-2.4,14.3-3.3,20.6,0.1c16.7,8.8,25.6,98.5,37.4,132
		s32.5,40.4,43.4,43.4c10.8,3,19.7,34.5,38.4,34.5c16.2,0,30.2-6,33-31.8c-1.3,0.1-2.5,0.2-3.8,0.2
		C739.6,447.2,723.3,430.9,723.3,411z"/>
	<path class="st0" d="M763.9,433.5c-0.3-13.8-3.9-32.8-8.7-52.7c-14.7,2.2-26,14.8-26,30.1c0,16.7,13.7,30.4,30.4,30.4
		c1.5,0,2.9-0.1,4.2-0.3C764,438.6,764,436.2,763.9,433.5z"/>
	<path class="st0" d="M351.2,172.2c13.1-3.8,24-5,32.5-5c10.4,0,18,1.7,22.4,3.1c4.4-1.4,11.9-3.1,22.4-3.1c8.5,0,19.4,1.1,32.5,5
		c-1.3-4.8-2-8.7-0.9-10.4c3.3-6,15.7-19.7,15.1-46.3c-0.3-16.1-16.7-41.9-31.2-60.6l-4.2-5.3c-7.9-9.6-14.6-16.4-17.1-17.2
		c-7.2-2.6-16.4-2-16.4-2s-9.2-0.7-16.4,2c-2.4,0.9-9.2,7.7-17.1,17.2l-4.2,5.3c-14.6,18.7-30.9,44.5-31.2,60.6
		c-0.7,26.6,11.8,40.4,15.1,46.3C353,163.5,352.4,167.5,351.2,172.2z"/>
	<path class="st0" d="M300.2,673.6c-10.6-5.7-20.9-12.4-31-19.6c-13.1-9.5-27-22.5-39.9-40c-5.7,19-14.2,52.4-13,77.8
		c0.1,2.9,0.6,5.6,1.3,8.3l2.2,6.1c6.4,14.1,20.6,23.3,33.8,29.5l7.7,3.4c7.9,3.3,14.8,5.9,18,7.9c6.2,3.9,11.4,11.6,18.5,16.3
		l5.5,2.8c4.2,1.5,9.3,1.7,15.4-0.3c20.6-6.9,0-50.2-11.8-64C301.4,694.8,300,683.5,300.2,673.6z"/>
</g>
</svg>
