<?xml version="1.0" encoding="utf-8"?>
<!-- Generator: Adobe Illustrator 22.1.0, SVG Export Plug-In . SVG Version: 6.00 Build 0)  -->
<svg version="1.1" id="Layer_1" xmlns="http://www.w3.org/2000/svg" xmlns:xlink="http://www.w3.org/1999/xlink" x="0px" y="0px"
	 viewBox="0 0 800 800" style="enable-background:new 0 0 800 800;" xml:space="preserve">
<style type="text/css">
	.st0{fill:#00B497;}
	.st1{fill:#424242;}
</style>
<g>
	<path class="st0" d="M346.3,299.1c12.8,14.5,31.1,22.8,50.4,22.8h6.3c19.5,0,38.1-8.5,50.9-23.4c7.4-8.5,15.4-19.5,23.7-33.2
		c6.9-11.3,11.8-22.9,15.2-34.3c-1.9-1.2-3.7-2.2-5.7-3.4c-42.3-23.7-86.4-24.2-86.9-24.2h-0.7c-0.5,0-44.6,0.5-87,24.2
		c-2.1,1.2-4.2,2.5-6.3,3.7c3.4,10.9,8.2,22,14.7,32.9C329.9,278.9,338.6,290.3,346.3,299.1z M433.2,225.3
		c7.6,1.8,16.1,4.2,24.9,7.7l-26.2,55L433.2,225.3z M399.8,220.6h0.6c0.1,0,5.1,0.1,13.3,1.2l-13.8,69.1l-13.8-69.1
		C394.4,220.7,399.7,220.6,399.8,220.6z M366.6,225.3l1.3,62.7l-26.2-55C350.4,229.5,358.9,227,366.6,225.3z"/>
	<path class="st1" d="M430.3,334.3h-61.8c-7.6,0-14.7,4.1-18.5,10.6l-30.9,53.5c-3.9,6.6-3.9,14.7,0,21.4l30.9,53.5
		c3.9,6.6,10.9,10.6,18.5,10.6h61.8c7.6,0,14.7-4.1,18.5-10.6l30.9-53.5c3.9-6.6,3.9-14.7,0-21.4l-30.9-53.5
		C444.9,338.4,437.9,334.3,430.3,334.3z M448.7,417.6l-17.3,29.9c-3,5.3-8.5,8.4-14.6,8.4h-34.6c-6.1,0-11.6-3.3-14.6-8.4
		l-17.3-29.9c-3-5.3-3-11.7,0-16.8l17.3-29.9c3-5.3,8.5-8.4,14.6-8.4h34.6c6.1,0,11.6,3.3,14.6,8.4l17.3,29.9
		C451.6,405.9,451.6,412.3,448.7,417.6z"/>
	<path class="st1" d="M452.6,519.2c-12.8-14.6-31.1-22.9-50.4-22.9h-4.7c-19.1,0-37.2,8.1-49.9,22.3c-8.1,9-17.2,20.9-26.6,36.4
		c-6.3,10.4-11,21.2-14.4,31.6c1.9,1.9,3.9,3.6,5.7,5.5c33,30.3,68.4,48.4,87.4,56.9c19-8.4,54.4-26.6,87.4-56.9
		c1.8-1.6,3.5-3.3,5.3-4.9c-3.4-11-8.2-22.2-14.9-33.2C468.9,539.4,460.4,528,452.6,519.2z M366.4,611.7c-7.8-4.9-16-10.6-24.3-17
		l25.7-54L366.4,611.7z M399.9,630c-5.3-2.5-11.2-5.5-17.8-9.2l17.8-93.3l17.8,93.3C411.1,624.5,405.2,627.6,399.9,630z
		 M433.5,611.7l-1.4-71.1l25.7,54C449.5,601,441.2,606.6,433.5,611.7z"/>
	<path class="st1" d="M205.6,414.8c3,68.7,27.3,127.9,72.2,176.6c4.4-3.9,8.8-8.1,13-12.6c-41.9-45.9-64.5-101.4-67.1-166
		C217.4,413.1,211.3,413.8,205.6,414.8z"/>
	<path class="st1" d="M223.4,392.2c1.5-70.1,23.2-122,64.2-155c-4.4-4.6-8.9-8.8-13.5-12.5c-44.1,36.4-67.3,92.4-68.9,167
		c0,2.5-0.1,5-0.1,7.5c5.8,1.2,11.9,1.9,18.1,2.3C223.4,398.5,223.4,395.4,223.4,392.2z"/>
	<path class="st1" d="M229.5,392.3c-0.1,3.2-0.1,6.4,0,9.6c1.9,0,3.7,0.1,5.6,0.1c17.5-0.2,32.1-1.9,43.6-4.2
		c19.1-3.6,35.6-15.4,45.3-32.3l0.4-0.6c9.6-16.6,11.6-36.4,5.6-54.5c-3.7-11.3-9.5-25-18.1-40.7c-5.8-10.5-12.6-19.9-20-28
		C251.9,273.6,231,324.1,229.5,392.3z M247.4,377.2c0.5-7,1.3-13.8,2.2-20.4l46.2,15.2L247.4,377.2z M254,334.5
		c1.8-7,3.9-13.7,6.3-20.1l43,26.4L254,334.5z M317.1,311.6l-47.1-17.7c3.5-6.3,7.4-12.2,11.7-17.7L317.1,311.6z"/>
	<path class="st1" d="M525.8,224.9c-4.6,3.7-9.1,7.8-13.6,12.4c41.1,33,62.7,84.9,64.2,155c0.1,3.2,0.1,6.3,0.1,9.4
		c6.2-0.5,12.3-1.3,18.1-2.3c0-2.5,0-4.9-0.1-7.5C592.8,317.2,569.7,261.3,525.8,224.9z"/>
	<path class="st0" d="M424.7,385.7c-3.6-6.3-10.3-10.2-17.5-10.2h-15.4c-7.3,0-13.9,3.9-17.5,10.2l-7.7,13.3c-3.6,6.3-3.6,14,0,20.4
		l7.7,13.3c3.6,6.3,10.3,10.2,17.5,10.2h15.4c7.3,0,13.9-3.9,17.5-10.2l7.7-13.3c3.6-6.3,3.6-14,0-20.4L424.7,385.7z"/>
	<path class="st1" d="M469.3,310.3c-6.2,18.2-4.2,38.3,5.5,55c9.6,16.5,25.6,28.3,44.3,32.1c11.9,2.5,27.1,4.3,45.6,4.6
		c1.9,0,3.7,0,5.6-0.1c0-3.2,0-6.3,0-9.6c-1.5-68.3-22.5-118.8-62.3-150.7c-7.6,8.4-14.9,18-20.9,29.1
		C478.6,285.9,473,299.2,469.3,310.3z M552.5,377.2l-48.4-5.1l46.2-15.2C551.3,363.4,552,370.2,552.5,377.2z M545.8,334.5l-49.4,6.2
		l43-26.4C541.9,320.7,544,327.5,545.8,334.5z M518.3,276.3c4.3,5.5,8.2,11.3,11.7,17.7l-47.1,17.7L518.3,276.3z"/>
	<path class="st1" d="M509,578.8c4.2,4.6,8.7,8.8,13.1,12.5c44.8-48.8,69-108,72.2-176.5c-5.8-0.9-11.8-1.6-18-2
		C573.5,477.4,551,533,509,578.8z"/>
	<path class="st1" d="M629.7,391c0-0.9-0.1-1.8-0.1-2.7l0,0c0,0,0,0,0-0.1c-0.1-5.3-0.5-10.5-0.8-15.6c0-0.5,0-0.8-0.1-1.3
		c-0.1-2.3-0.4-4.7-0.6-7c0-0.6-0.1-1.3-0.2-1.9c-0.7-7.3-1.6-14.2-2.7-20.9c-0.1-0.5-0.1-0.9-0.2-1.4c-0.4-2.2-0.7-4.3-1.2-6.4
		c-0.1-0.5-0.1-0.8-0.2-1.2c-1.3-6.6-2.7-13-4.3-19.1c-0.1-0.5-0.2-0.9-0.4-1.4c-0.5-2-1.1-4-1.6-5.8c0-0.2-0.1-0.4-0.1-0.6
		c-1.8-6.1-3.7-11.9-5.8-17.5c-0.1-0.5-0.4-0.9-0.5-1.4c-2.1-5.5-4.3-10.8-6.7-15.9c-0.1-0.2-0.2-0.5-0.4-0.8
		c-0.7-1.6-1.5-3.2-2.3-4.7c-0.2-0.5-0.5-0.8-0.6-1.3c-2.5-4.8-5-9.4-7.6-13.8c-0.2-0.4-0.5-0.7-0.6-1.1c-0.8-1.4-1.8-2.8-2.6-4.1
		c-0.2-0.4-0.5-0.7-0.6-0.9c-2.8-4.2-5.6-8.3-8.5-12.3c-0.2-0.4-0.5-0.7-0.8-1.1c-0.9-1.3-1.9-2.5-2.9-3.7c-0.1-0.1-0.2-0.4-0.4-0.5
		c-3.2-3.9-6.3-7.6-9.7-11.1c-0.2-0.2-0.5-0.5-0.7-0.7c-3.4-3.6-6.9-7-10.4-10.3l0,0c-17.9-16.4-37.3-28.3-56.1-37.1l0,0l0,0
		c-40.7-18.8-78.7-22.6-93.6-23.4l0,0c-0.6,0-1.1,0-1.6-0.1h-0.1c-0.5,0-0.9,0-1.3,0h-0.1c-0.4,0-0.7,0-1.1,0H402
		c-0.4,0-0.6,0-0.8,0h-0.1c-0.2,0-0.5,0-0.6,0l0,0c-0.1,0-0.4,0-0.4,0c-0.1,0-0.1,0-0.1,0l0,0h-0.1c0,0-0.1,0-0.2,0
		c-0.1,0-0.1,0-0.2,0c-0.1,0-0.2,0-0.5,0c-0.1,0-0.2,0-0.4,0c-0.2,0-0.5,0-0.7,0c-0.1,0-0.2,0-0.4,0c-0.2,0-0.6,0-0.9,0
		c-0.1,0-0.2,0-0.4,0c-0.4,0-0.7,0-1.2,0c-0.1,0-0.2,0-0.4,0c-0.5,0-0.8,0-1.4,0.1c-0.1,0-0.2,0-0.4,0c-0.5,0-1.1,0-1.6,0.1
		c-0.1,0-0.2,0-0.4,0c-0.6,0-1.2,0.1-1.9,0.1c-0.1,0-0.1,0-0.2,0c-0.7,0-1.4,0.1-2.1,0.1h-0.1c-9,0.7-22,2.3-37.2,6l0,0
		c-1.4,0.4-2.8,0.7-4.2,1.1h-0.1c-1.4,0.4-2.8,0.7-4.2,1.1h-0.1c-31.7,8.4-70.8,25.1-103.6,58c-0.2,0.2-0.5,0.5-0.7,0.7
		c-0.9,1.1-2,2-2.9,3c-0.4,0.4-0.7,0.7-1.1,1.2c-3,3.3-6.1,6.8-9,10.4c-0.4,0.4-0.6,0.8-0.9,1.2c-0.9,1.2-1.8,2.2-2.7,3.4
		c-0.4,0.5-0.7,0.8-0.9,1.3c-2.8,3.7-5.6,7.7-8.3,11.8c-0.4,0.5-0.6,0.9-0.9,1.4c-0.8,1.3-1.6,2.6-2.5,4c-0.2,0.4-0.5,0.8-0.7,1.2
		c-2.6,4.3-5.1,8.9-7.5,13.6c-0.2,0.5-0.5,0.9-0.7,1.5c-0.7,1.5-1.5,3-2.2,4.6c-0.1,0.2-0.2,0.5-0.4,0.7c-1.5,3.4-3,6.8-4.6,10.4
		c-0.1,0.1-0.1,0.4-0.2,0.5c-0.7,1.6-1.4,3.4-2,5.1c-0.2,0.5-0.4,0.9-0.6,1.5c-2.1,5.5-4,11.2-5.7,17.2c-0.1,0.4-0.2,0.6-0.2,0.9
		c-0.6,1.9-1.1,3.9-1.6,5.8c-0.1,0.5-0.2,0.9-0.4,1.4c-1.6,6.1-3,12.5-4.3,19.1c-0.1,0.5-0.1,0.9-0.2,1.3c-0.4,2.1-0.8,4.3-1.2,6.4
		c-0.1,0.5-0.1,0.8-0.2,1.3c-1.1,6.8-2,13.8-2.7,21.1c-0.1,0.6-0.1,1.3-0.2,1.9c-0.2,2.3-0.4,4.7-0.6,7c0,0.4,0,0.8-0.1,1.2
		c-0.4,5.1-0.6,10.3-0.8,15.7c0,0,0,0,0,0.1c0,0.9-0.1,1.8-0.1,2.7c-0.4,16.5,0.4,32.3,2,47.3c0.1,0.7,0.1,1.4,0.2,2.1
		c0.2,2,0.5,4,0.7,5.8c0.1,0.8,0.2,1.6,0.4,2.3c0.2,2,0.6,4,0.8,6l0,0c0.7,4.3,1.5,8.7,2.3,13c0.1,0.6,0.2,1.1,0.4,1.6
		c0.4,1.9,0.8,3.7,1.2,5.6c0.1,0.7,0.4,1.4,0.5,2.1c0.5,1.9,0.8,3.7,1.3,5.6c0,0.1,0.1,0.2,0.1,0.4c1.1,4.1,2.1,8.1,3.3,11.9
		c0.1,0.4,0.2,0.8,0.4,1.2c0.6,1.8,1.1,3.5,1.6,5.3c0.2,0.6,0.4,1.3,0.6,1.9c0.6,1.8,1.2,3.5,1.8,5.3c0.1,0.2,0.1,0.5,0.2,0.6
		c1.3,3.7,2.7,7.5,4.1,11.1c0.1,0.2,0.2,0.6,0.4,0.8c0.7,1.6,1.4,3.3,2,5c0.2,0.6,0.5,1.2,0.7,1.8c0.7,1.6,1.4,3.3,2.1,4.9
		c0.1,0.2,0.2,0.5,0.4,0.8c1.6,3.5,3.3,7,4.9,10.5c0.1,0.1,0.1,0.2,0.2,0.4c0.8,1.5,1.6,3.2,2.5,4.7c0.2,0.5,0.6,1.1,0.8,1.5
		c0.8,1.5,1.6,3,2.5,4.6c0.1,0.2,0.4,0.6,0.5,0.8c2.7,4.9,5.5,9.7,8.4,14.3c0.2,0.5,0.6,0.8,0.8,1.3c0.9,1.4,1.9,2.8,2.8,4.2
		c0.1,0.2,0.4,0.5,0.5,0.7c3,4.6,6.2,9,9.4,13.3c0.2,0.4,0.5,0.6,0.7,0.9c1.1,1.4,2.1,2.7,3.2,4.1c0.1,0.1,0.2,0.2,0.4,0.5
		c3.4,4.3,6.8,8.5,10.3,12.5c0.1,0.1,0.2,0.4,0.5,0.5c1.2,1.3,2.3,2.7,3.5,4l0,0c21.5,24.1,44.9,43,66.8,57.8
		c0.1,0.1,0.2,0.2,0.5,0.2c1.3,0.8,2.6,1.8,3.9,2.6c0.1,0.1,0.2,0.1,0.4,0.2c6.8,4.4,13.5,8.4,19.8,12c0,0,0,0,0.1,0
		c1.3,0.7,2.6,1.4,3.7,2.1c0,0,0,0,0.1,0c6.2,3.5,12.2,6.6,17.7,9.2c0,0,0.1,0,0.1,0.1c1.1,0.5,2.1,1.1,3.2,1.5
		c0.1,0,0.2,0.1,0.2,0.1c5.1,2.5,9.9,4.7,14.2,6.4c0.2,0.1,0.4,0.1,0.6,0.2c0.7,0.4,1.4,0.6,2.1,0.8c0.2,0.1,0.5,0.2,0.7,0.2
		c0.6,0.2,1.3,0.5,1.9,0.8c0.2,0.1,0.5,0.2,0.7,0.2c0.6,0.2,1.2,0.5,1.8,0.7c0,0,0,0,0.1,0c1.2,0.5,2.3,0.9,3.4,1.3
		c0.2,0.1,0.6,0.2,0.8,0.4c0.4,0.1,0.7,0.2,1.2,0.5c0.4,0.1,0.6,0.2,0.9,0.4s0.6,0.2,0.9,0.4s0.6,0.2,0.9,0.4
		c0.2,0.1,0.5,0.2,0.8,0.2c0.4,0.1,0.6,0.2,0.9,0.4c0.2,0.1,0.4,0.1,0.6,0.2c0.4,0.1,0.8,0.2,1.2,0.4h0.1h2.8
		c0.4-0.1,0.8-0.2,1.3-0.5c0.1,0,0.4-0.1,0.5-0.1c0.4-0.1,0.6-0.2,0.9-0.4c0.2-0.1,0.5-0.1,0.7-0.2c0.4-0.1,0.6-0.2,0.9-0.4
		c0.2-0.1,0.6-0.2,0.9-0.4c0.2-0.1,0.6-0.2,0.9-0.4s0.7-0.2,1.2-0.5c0.1,0,0.2-0.1,0.5-0.1c1.2-0.5,2.3-0.9,3.6-1.4h0.1
		c0.6-0.2,1.3-0.5,2-0.8c0.1,0,0.2-0.1,0.4-0.1c0.7-0.2,1.4-0.6,2.1-0.8c0.1,0,0.2-0.1,0.4-0.1c18.8-8,49.6-22.8,81.9-47l0,0
		c17.3-13,35.1-28.5,51.7-47.3l0,0c1.1-1.3,2.2-2.5,3.3-3.7c0.2-0.4,0.6-0.6,0.8-0.9c3.4-4,6.8-8.1,10.1-12.3
		c0.1-0.1,0.2-0.4,0.4-0.5c0.9-1.3,2-2.6,2.9-3.9c0.4-0.5,0.7-0.8,0.9-1.3c0.9-1.3,1.9-2.6,2.9-4c0.1-0.2,0.2-0.4,0.4-0.6
		c2-2.8,4-5.6,5.8-8.5c0.1-0.2,0.4-0.5,0.5-0.8c0.9-1.3,1.8-2.7,2.6-4.1c0.4-0.6,0.7-1.1,1.1-1.6c0.8-1.4,1.8-2.8,2.6-4.1
		c0.2-0.4,0.4-0.6,0.6-0.9c1.8-2.9,3.5-6,5.3-9c0.1-0.2,0.4-0.6,0.5-0.8c0.8-1.4,1.5-2.9,2.3-4.3c0.4-0.6,0.6-1.2,0.9-1.8
		c0.8-1.5,1.5-2.9,2.2-4.4c0.2-0.4,0.4-0.8,0.6-1.2c1.6-3.2,3.2-6.4,4.7-9.8c0.1-0.2,0.2-0.5,0.4-0.7c0.7-1.5,1.4-3.2,2.1-4.8
		c0.2-0.6,0.6-1.3,0.8-1.9c0.7-1.6,1.3-3.2,2-4.8c0.2-0.5,0.4-0.9,0.6-1.4c1.4-3.5,2.7-7.1,4-10.8c0-0.1,0.1-0.4,0.1-0.5
		c0.6-1.8,1.2-3.4,1.8-5.1c0.2-0.7,0.5-1.3,0.7-2c0.6-1.8,1.1-3.4,1.6-5.1c0.1-0.5,0.4-1.1,0.5-1.5c1.2-3.9,2.2-7.8,3.3-11.9v-0.1
		c0.5-1.9,0.9-3.6,1.3-5.5c0.1-0.7,0.4-1.5,0.5-2.2c0.4-1.9,0.8-3.6,1.2-5.5c0.1-0.6,0.2-1.2,0.4-1.9c0.8-4.2,1.6-8.4,2.3-12.8l0,0
		c0.4-1.9,0.6-3.9,0.8-5.8c0.1-0.8,0.2-1.6,0.4-2.5c0.2-1.9,0.5-3.9,0.7-5.7c0.1-0.7,0.1-1.5,0.2-2.3c0.5-4.3,0.8-8.8,1.2-13.2
		c0-0.1,0-0.1,0-0.2l0,0C629.7,413.8,630,402.6,629.7,391z M526.8,595.3l-27.4,26.3c-38.6,33.1-77.8,51.4-98.5,59.5
		c-0.4,0.1-0.7,0.2-1.1,0.2s-0.7-0.1-1.1-0.2c-20.8-8.3-60.5-26.8-99.3-60.4l-26.3-25.5c-45.6-49.6-70.3-109.8-73.6-179.4l-0.4-17.9
		c0-2.1,0-4.2,0.1-6.3c1.8-76,25.3-133.4,70.2-170.8c0,0,17.8-13.9,30.3-20.6c48.9-26.8,97.8-27,99.9-27h0.6
		c2.1,0,50.5,0.4,99.1,26.6c0,0,20.9,13.8,31.3,21.2c44.7,37.5,68.2,94.8,70,170.7c0,2.1,0,4.2,0.1,6.3l-0.4,17.9
		C597,485.4,572.3,545.6,526.8,595.3z"/>
	<path class="st0" d="M564.8,412.7c-17.9,0.5-32.8,2.6-44.5,5.1c-18.5,4-34.4,15.6-43.9,32.1l-2,3.5c-9.6,16.6-11.6,36.5-5.6,54.6
		c3.7,11.3,9.5,25,18,40.6c5.3,9.6,11.5,18.1,18,25.7c40.7-44.7,62.5-98.8,65.2-161.7C568.3,412.7,566.6,412.7,564.8,412.7z
		 M512.9,536.8l-33.8-43.5l45.7,24.1C521.2,524,517.2,530.5,512.9,536.8z M534.6,496.9L496.3,466l45.5,11.7
		C539.6,484.3,537.2,490.7,534.6,496.9z M547.7,455L507.9,436l43,0.8C550,443,548.9,449.1,547.7,455z"/>
	<path class="st0" d="M330.3,507.5c5.7-17.9,3.6-37.4-5.8-53.8l-2.3-4.1c-9.4-16.3-25.1-28-43.6-31.9c-11.6-2.5-26.1-4.4-43.5-4.9
		c-1.8,0-3.5,0-5.3,0c2.7,62.7,24.4,117,65.2,161.5c6.2-7.3,11.9-15.4,17-24.6C320.7,533.4,326.5,519.1,330.3,507.5z M249,436.9
		l43-0.8l-39.9,19.1C250.9,449.1,249.8,443,249,436.9z M258.1,477.8l45.5-11.7L265.3,497C262.6,490.7,260.2,484.3,258.1,477.8z
		 M286.9,536.8c-4.3-6.3-8.3-12.8-11.9-19.4l45.7-24.1L286.9,536.8z"/>
	<path class="st1" d="M743.5,387.1c-6.7-57.7-37.5-124.1-43.6-134.2c-6.1-10.1-18.1-22.8-63.8-35.6c-26.2-7.3-48.5-8-62.9-7.3
		c31.5,33.6,56.5,82.4,63.1,153.2c49.9,30.2,48.8,121.9,46.6,155.9c-0.4,5,5.7,8,9.5,4.4C718.8,498,749.3,437.8,743.5,387.1z"/>
	<path class="st1" d="M163.8,217.2c-45.6,12.8-57.7,25.5-63.8,35.6c-6.1,10.1-37,76.5-43.6,134.2c-5.8,50.8,24.7,110.9,51.2,136.5
		c3.6,3.5,9.7,0.7,9.5-4.4c-2.2-34-3.4-125.7,46.6-155.9c6.6-70.9,31.6-119.7,63.1-153.2C212.4,209.3,189.9,210,163.8,217.2z"/>
	<path class="st1" d="M266.9,641.7c-8.9-8.2-17.3-16.7-25.1-25.6c-5.8,10.6-14.3,32.9-15.6,74.2c-1.8,57.9,29.8,82,71.5,95.3
		c4.8,1.5,9-3.6,6.6-8.1c-11.8-21.1-11.3-48.1,13.9-96.4C301.6,670.6,284.1,657.5,266.9,641.7z"/>
	<path class="st1" d="M558,616.1c-7.8,8.9-16.3,17.4-25.1,25.6c-17.2,15.8-34.7,28.8-51.2,39.4c25.3,48.3,25.7,75.3,13.9,96.4
		c-2.5,4.4,1.8,9.6,6.6,8.1c41.6-13.3,73.3-37.4,71.5-95.3C572.3,649.1,563.9,626.9,558,616.1z"/>
	<path class="st1" d="M399.7,136h0.6c2.8,0,24,0.2,52.8,7c1.4-16.7,3.6-28.9,4.1-52.6c0.7-36.3-44.3-78.5-57.1-75.2
		c-12.8-3.4-57.7,39-57.1,75.2c0.5,23.7,2.6,35.9,4.1,52.6C375.6,136.3,396.9,136,399.7,136z"/>
</g>
</svg>
