<?xml version="1.0" encoding="utf-8"?>
<!-- Generator: Adobe Illustrator 22.1.0, SVG Export Plug-In . SVG Version: 6.00 Build 0)  -->
<svg version="1.1" id="Layer_1" xmlns="http://www.w3.org/2000/svg" xmlns:xlink="http://www.w3.org/1999/xlink" x="0px" y="0px"
	 viewBox="0 0 800 800" style="enable-background:new 0 0 800 800;" xml:space="preserve">
<style type="text/css">
	.st0{fill:#424242;}
	.st1{fill:#00B497;}
</style>
<g>
	<g>
		<path class="st0" d="M403.6,693.2l-3.4,1.7l-3.3-1.7c-0.7-0.3-3.9-2-9.1-4.6c3.6,14,9.9,32.5,19.3,40.9c0,0,1.3-20.4,5.9-41
			C407.6,691.1,404.3,692.8,403.6,693.2z"/>
		<path class="st0" d="M214,297.4c7.3-10.7,15.5-20.8,24.5-30C127.6,195.2,58.3,325.6,49.6,380.8c-8.7,55.6-35,89.8-35,89.8
			c116.8,53.6,131.2-72.9,145.6-121C172.4,308.2,205,299.2,214,297.4z M64.8,438.2c-4,0-7.2-3.2-7.2-7.2s3.2-7.2,7.2-7.2
			S72,427,72,431S68.8,438.2,64.8,438.2z M79.5,391.4c-5.2,0-9.4-4.2-9.4-9.4c0-5.2,4.2-9.4,9.4-9.4s9.4,4.2,9.4,9.4
			C88.9,387.2,84.7,391.4,79.5,391.4z M99.5,419.5c-5.2,0-9.4-4.2-9.4-9.4s4.2-9.4,9.4-9.4s9.4,4.2,9.4,9.4
			C108.8,415.3,104.6,419.5,99.5,419.5z M95.9,357c-9.1,0-16.4-7.3-16.4-16.4s7.3-16.4,16.4-16.4c9.1,0,16.4,7.3,16.4,16.4
			S104.9,357,95.9,357z M129.2,372c-4,0-7.2-3.2-7.2-7.2s3.2-7.2,7.2-7.2s7.2,3.2,7.2,7.2S133.1,372,129.2,372z"/>
		<path class="st0" d="M751,380.8c-8.7-55.2-78-185.5-188.9-113.4c9,9.3,17.2,19.3,24.5,30c9,1.7,41.6,10.8,53.9,52.1
			c14.4,48.1,28.7,174.6,145.6,121C785.9,470.6,759.7,436.4,751,380.8z M671.3,372c-4,0-7.2-3.2-7.2-7.2s3.2-7.2,7.2-7.2
			s7.2,3.2,7.2,7.2S675.3,372,671.3,372z M704.6,324.2c9.1,0,16.4,7.3,16.4,16.4s-7.3,16.4-16.4,16.4s-16.4-7.3-16.4-16.4
			S695.5,324.2,704.6,324.2z M701,419.5c-5.2,0-9.4-4.2-9.4-9.4s4.2-9.4,9.4-9.4c5.2,0,9.4,4.2,9.4,9.4
			C710.3,415.3,706.2,419.5,701,419.5z M721,391.4c-5.2,0-9.4-4.2-9.4-9.4c0-5.2,4.2-9.4,9.4-9.4s9.4,4.2,9.4,9.4
			C730.3,387.2,726.1,391.4,721,391.4z M735.6,438.2c-4,0-7.2-3.2-7.2-7.2s3.2-7.2,7.2-7.2s7.2,3.2,7.2,7.2
			C742.8,435,739.6,438.2,735.6,438.2z"/>
		<path class="st0" d="M580.1,565.3c-8.5,12.4-18.2,24-28.8,34.7c-0.9,27.5-18.3,31.6-38.5,65c-23.2,38.4,1.9,66.6,1.9,66.6
			c1.7-9.4,16.2-22.2,38.4-30.7c22.2-8.5,51.2-23.1,53.4-68.3C608.2,596,588.1,572.9,580.1,565.3z M540.2,685.2
			c-3.6,0-6.6-2.9-6.6-6.6c0-3.6,2.9-6.6,6.6-6.6c3.6,0,6.6,2.9,6.6,6.6C546.8,682.3,543.8,685.2,540.2,685.2z M572.8,666.4
			c-6,0-10.9-4.9-10.9-10.9s4.9-10.9,10.9-10.9s10.9,4.9,10.9,10.9C583.7,661.6,578.8,666.4,572.8,666.4z M584.4,621.1
			c0,4.7-3.8,8.5-8.5,8.5s-8.5-3.8-8.5-8.5s3.8-8.5,8.5-8.5S584.4,616.4,584.4,621.1z"/>
		<path class="st0" d="M249.1,599.9c-10.6-10.7-20.2-22.3-28.8-34.7c-7.9,7.6-28.1,30.8-26.4,67.3c2.1,45.3,31.2,59.8,53.4,68.3
			s36.7,21.4,38.4,30.7c0,0,25.1-28.2,1.9-66.6C267.5,631.5,250,627.5,249.1,599.9z M224.6,612.6c4.7,0,8.5,3.8,8.5,8.5
			s-3.8,8.5-8.5,8.5s-8.5-3.8-8.5-8.5C216,616.4,219.9,612.6,224.6,612.6z M227.7,666.4c-6,0-10.9-4.9-10.9-10.9s4.9-10.9,10.9-10.9
			s10.9,4.9,10.9,10.9C238.6,661.6,233.7,666.4,227.7,666.4z M260.2,685.2c-3.6,0-6.6-2.9-6.6-6.6c0-3.6,2.9-6.6,6.6-6.6
			c3.6,0,6.6,2.9,6.6,6.6C266.8,682.3,263.9,685.2,260.2,685.2z"/>
	</g>
	<path class="st0" d="M360.7,202.1c12.8-2.3,26.1-3.5,39.5-3.5c13.5,0,26.7,1.2,39.5,3.5c-0.2-2.6-0.3-13.5,10.1-28.2
		C464.5,153,473.2,97.2,404,60.3c-2.4-1.3-5.3-1.3-7.7,0c-69.1,36.9-60.5,92.7-45.8,113.6C361,188.6,360.9,199.6,360.7,202.1z
		 M434.6,119.4c4.4,0,8,3.6,8,8s-3.6,8-8,8s-8-3.6-8-8S430.2,119.4,434.6,119.4z M422.4,152.7c0,6.2-5,11.2-11.2,11.2
		s-11.2-5-11.2-11.2s5-11.2,11.2-11.2S422.4,146.5,422.4,152.7z M408.4,103c5.2,0,9.4,4.2,9.4,9.4s-4.2,9.4-9.4,9.4
		c-5.2,0-9.4-4.2-9.4-9.4S403.2,103,408.4,103z"/>
	<path class="st1" d="M364.1,394c-7.4-5.2-22.5-15-44.1-24.3c-7.1,10.6-12.2,22.6-14.7,35.6c21.9,8.7,39.5,12.5,48.4,14
		C354.6,409.7,358.4,401,364.1,394z"/>
	<path class="st1" d="M320,477.9c21.6-9.3,36.8-19.1,44.1-24.3c-5.8-7-9.5-15.7-10.4-25.2c-8.9,1.5-26.5,5.3-48.4,14
		C307.8,455.3,312.9,467.3,320,477.9z"/>
	<path class="st0" d="M261.6,413.2c1.6,0,3.1,0.3,4.4,1c5.7,2.6,12.3,2.7,17.8-0.5l2-1.2c2.3-23.2,11.5-44.4,25.5-61.5l-0.4-1.6
		c-1.7-6.4-6.5-11.3-12.7-13.7c-1.3-0.5-2.5-1.3-3.6-2.4c-1.8-1.8-2.8-4.1-3.1-6.5c-0.4-4.6-2.7-8.7-6-11.9L265.1,295
		c-31.7,32.5-51.7,76.4-53.3,124.9l31.9-0.4c4.2-0.1,8.1-1.6,11.4-4.2C257,414,259.2,413.2,261.6,413.2z M290.3,357.8
		c-6.5,10.7-11.4,22.5-14.5,35c-21.4-10.9-38.3-36.4-38.3-36.4S267.5,350.3,290.3,357.8z"/>
	<path class="st0" d="M505.8,333.3c-1.1,1.1-2.3,1.8-3.6,2.4c-6.1,2.4-11,7.3-12.7,13.7l-0.4,1.6c14,17.1,23.2,38.3,25.5,61.5l2,1.2
		c5.5,3.2,12.1,3.1,17.8,0.5c1.4-0.6,2.9-1,4.4-1c2.5,0,4.8,0.9,6.7,2.4c3.6,2.9,8.3,4.3,13,4.2l30-0.4
		c-1.8-48.4-21.9-92.3-53.7-124.7L515,315c-3.3,3.4-5.5,7.8-6.3,12.5C508.4,329.6,507.4,331.7,505.8,333.3z M562.9,356.4
		c0,0-16.9,25.5-38.3,36.4c-3.1-12.5-8-24.2-14.5-35C533,350.3,562.9,356.4,562.9,356.4z"/>
	<path class="st1" d="M395.7,470.3c-9.5-0.9-18.2-4.7-25.2-10.4c-5.2,7.4-15,22.5-24.3,44.1c10.6,7.1,22.6,12.2,35.6,14.7
		C390.4,496.9,394.2,479.3,395.7,470.3z"/>
	<path class="st1" d="M381.7,328.8c-13,2.5-25,7.6-35.6,14.7c9.3,21.6,19.1,36.8,24.3,44.1c7-5.8,15.7-9.5,25.2-10.4
		C394.2,368.3,390.4,350.7,381.7,328.8z"/>
	<path class="st0" d="M309.7,318.3c1.1,1.1,1.8,2.3,2.4,3.6c2.4,6.1,7.3,11,13.7,12.7l1.6,0.4c17.1-14,38.3-23.2,61.5-25.5l0.1-0.2
		c3.6-6.2,3.8-13.6,1.3-20.4c-0.4-1.2-0.7-2.4-0.7-3.8c0-2.3,0.7-4.5,2-6.2c3-4.1,4.6-9,4.6-14l-0.3-26.9
		c-48.2,1.1-91.9,20.4-124.7,51.2l20.6,20.1c3.2,3.1,7.3,5.4,11.8,5.9C305.8,315.5,308,316.5,309.7,318.3z M332.8,261.1
		c0,0,25.5,16.9,36.4,38.3c-12.5,3.1-24.2,8-35,14.5C326.7,291,332.8,261.1,332.8,261.1z"/>
	<path class="st1" d="M418.7,328.8c-8.7,21.9-12.5,39.5-14,48.4c9.5,0.9,18.2,4.7,25.2,10.4c5.2-7.4,15-22.5,24.3-44.1
		C443.7,336.4,431.7,331.3,418.7,328.8z"/>
	<path class="st1" d="M418.7,518.8c13-2.5,25-7.6,35.6-14.7c-9.3-21.6-19.1-36.8-24.3-44.1c-7,5.8-15.7,9.5-25.2,10.4
		C406.2,479.3,410,496.9,418.7,518.8z"/>
	<path class="st1" d="M480.5,369.7c-21.6,9.3-36.8,19.1-44.1,24.3c5.8,7,9.5,15.7,10.4,25.2c8.9-1.5,26.5-5.3,48.4-14
		C492.7,392.3,487.6,380.3,480.5,369.7z"/>
	<path class="st0" d="M411.5,309.3l0.1,0.2c23.2,2.3,44.4,11.5,61.5,25.5l1.6-0.4c6.4-1.7,11.3-6.5,13.7-12.7
		c0.5-1.3,1.3-2.5,2.4-3.6c1.6-1.6,3.5-2.6,5.6-2.9c5.1-0.9,9.8-3.1,13.4-6.8l19.2-19.7c-32.8-30.7-76.6-49.9-124.8-50.9l0.4,27.8
		c0.1,4.7,1.4,9.3,4.2,13c1.3,1.8,2.1,4,2.1,6.4c0,1.3-0.2,2.6-0.7,3.8C407.6,295.6,407.9,303.1,411.5,309.3z M467.6,261.1
		c0,0,6.1,30-1.4,52.8c-10.7-6.5-22.5-11.4-35-14.5C442.1,278,467.6,261.1,467.6,261.1z"/>
	<path class="st1" d="M495.2,442.3c-21.9-8.7-39.5-12.5-48.4-14c-0.9,9.5-4.7,18.2-10.4,25.2c7.4,5.2,22.5,15,44.1,24.3
		C487.6,467.3,492.7,455.3,495.2,442.3z"/>
	<path class="st1" d="M429,423.8c0-15.9-12.9-28.8-28.8-28.8s-28.8,12.9-28.8,28.8c0,15.9,12.9,28.8,28.8,28.8S429,439.7,429,423.8z
		 M400.2,436.3c-6.9,0-12.5-5.6-12.5-12.5s5.6-12.5,12.5-12.5s12.5,5.6,12.5,12.5S407.1,436.3,400.2,436.3z"/>
	<path class="st0" d="M556.7,428.1c-4.2,0.1-8.1,1.6-11.4,4.2c-1.8,1.4-4,2.2-6.4,2.2c-1.6,0-3.1-0.3-4.4-1
		c-5.7-2.6-12.3-2.7-17.8,0.5l-2,1.2c-2.3,23.2-11.5,44.4-25.5,61.5l0.4,1.6c1.7,6.4,6.5,11.3,12.7,13.7c1.3,0.5,2.5,1.3,3.6,2.4
		c1.8,1.8,2.8,4.1,3.1,6.5c0.4,4.6,2.7,8.7,6,11.9l26.2,25.5c29.9-37.1,47.3-84,47.6-130.6L556.7,428.1z M510.1,489.8
		c6.5-10.7,11.4-22.5,14.5-35c21.4,10.9,38.3,36.4,38.3,36.4S533,497.3,510.1,489.8z"/>
	<path class="st1" d="M400.2,206.1c-120.2,0-217.7,97.4-217.7,217.7c0,72.9,35.9,143.7,90.9,188.1c35.7,28.8,126.7,74.6,126.7,74.6
		s100.9-50.1,138.5-84.8c48.3-44.6,79.1-110.3,79.1-177.9C617.9,303.6,520.4,206.1,400.2,206.1z M525.6,586.8
		c-33.4,30.8-119.9,73.9-123.6,75.7l-1.9,0.9l-1.9-0.9c-3.3-1.7-81.3-41-112.9-66.5c-24.7-19.9-45.3-45.9-59.6-75.1
		c-14.6-29.9-22.4-62.6-22.4-94.5c0-108.5,88.3-196.7,196.7-196.7c108.5,0,196.7,88.3,196.7,196.7
		C597,485.6,570.3,545.6,525.6,586.8z"/>
	<path class="st0" d="M490.7,529.3c-1.1-1.1-1.8-2.3-2.4-3.6c-2.4-6.1-7.3-11-13.7-12.7l-1.6-0.4c-16.9,13.8-37.8,23-60.7,25.4
		l-8.2,37.6v1.5c0.1,4.3,1.7,8.3,4.4,11.6c1.4,1.8,2.3,4.1,2.3,6.6c0,2.4-0.8,4.7-2.2,6.5c-2.8,3.6-4,8.1-4,12.7l0.5,37.1
		c21.4-11,87.6-45.8,114.8-70.9c5.5-5.1,10.8-10.5,15.7-16.1l-27-26.3c-3.2-3.1-7.3-5.4-11.8-5.9
		C494.7,532.1,492.5,531.1,490.7,529.3z M467.6,586.5c0,0-25.5-16.9-36.4-38.3c12.5-3.1,24.2-8,35-14.5
		C473.7,556.5,467.6,586.5,467.6,586.5z"/>
	<path class="st0" d="M389.6,595.4c0-2.5,0.8-4.7,2.2-6.5c2.8-3.6,4.1-8.2,4.1-12.8v-2.2l-7.8-35.8c-22.9-2.4-43.8-11.5-60.7-25.4
		l-1.6,0.4c-6.4,1.7-11.3,6.5-13.7,12.7c-0.5,1.3-1.3,2.5-2.4,3.6c-1.8,1.8-4.1,2.8-6.5,3.1c-4.6,0.4-8.7,2.7-11.9,6l-26.1,26.7
		c7.8,8.9,16.3,17.1,25.4,24.5c26.3,21.2,87.8,53.4,106.2,62.9l-0.5-38.7c-0.1-4.3-1.7-8.3-4.4-11.7
		C390.5,600.2,389.6,597.9,389.6,595.4z M332.8,586.5c0,0-6.1-30,1.4-52.8c10.7,6.5,22.5,11.4,35,14.5
		C358.3,569.6,332.8,586.5,332.8,586.5z"/>
	<path class="st0" d="M294.7,514.3c1.1-1.1,2.3-1.8,3.6-2.4c6.1-2.4,11-7.3,12.7-13.7l0.4-1.6c-14-17.1-23.2-38.3-25.5-61.5l-2-1.2
		c-5.5-3.2-12.1-3.1-17.8-0.5c-1.4,0.6-2.9,1-4.4,1c-2.5,0-4.8-0.9-6.7-2.4c-3.6-2.9-8.3-4.3-13-4.2l-30.1,0.4
		c0.5,46.6,18.2,93.6,48.1,130.5l25.8-26.5c3.1-3.2,5.4-7.3,6-11.8C292,518.2,293,516,294.7,514.3z M237.5,491.2
		c0,0,16.9-25.5,38.3-36.4c3.1,12.5,8,24.2,14.5,35C267.5,497.3,237.5,491.2,237.5,491.2z"/>
</g>
</svg>
